<?xml version="1.0" encoding="UTF-8"?>
<svg width="181px" height="167px" viewBox="0 0 181 167" version="1.1" xmlns="http://www.w3.org/2000/svg" xmlns:xlink="http://www.w3.org/1999/xlink">
    <!-- Generator: Sketch 52.5 (67469) - http://www.bohemiancoding.com/sketch -->
    <title>Group 4</title>
    <desc>Created with Sketch.</desc>
    <g id="Page-1" stroke="none" stroke-width="1" fill="none" fill-rule="evenodd">
        <g id="Group-4" transform="translate(0.000000, 6.000000)">
            <g id="Group-2" transform="translate(29.000000, 0.000000)" fill-rule="nonzero" stroke="#13181F" stroke-width="12">
                <g id="Group" transform="translate(36.000000, 0.000000)">
                    <polyline id="Path" points="86.6528476 0.669379611 0.55911689 0.669379611 0.55911689 48.8783689 0.55911689 96.63075 86.6528476 96.63075"></polyline>
                    <path d="M0.55911689,47.1329472 L76.5,47.1329472" id="Path-2"></path>
                </g>
                <path d="M5.68434189e-14,0.892047289 C12.0429839,0.712675539 20.1865253,0.623912775 24.430624,0.625758997 C51.0267986,0.637328576 64.3653684,2.7682861 71.8206774,7.23525193 C81.0605137,12.7714454 86.119978,25.9448188 86.9990703,46.7553721 C87.0788882,69.2347794 82.0194239,83.7293793 71.8206774,90.2391719 C65.4081333,94.3322564 53.5889901,95.9812935 36.3114241,96.6693505 C34.9089743,96.7252013 32.6845333,96.700224 30.3303545,96.6673182 C26.5816004,96.6149196 22.2152688,96.5115888 18.1330099,96.4494162 C14.2757941,96.390671 8.23145752,96.2311125 5.68434189e-14,95.9707408 L5.68434189e-14,0.892047289 Z" id="Path-4"></path>
            </g>
            <g id="Group-3" transform="translate(0.000000, 116.000000)" fill="#13181F" font-family="LucidaGrande-Bold, Lucida Grande" font-size="18" font-weight="bold">
                <text id="EL-DARAK" line-spacing="21">
                    <tspan x="44.4047852" y="17">EL DARAK</tspan>
                </text>
                <text id="TURKMEN-CARPETS">
                    <tspan x="0.0825195312" y="44">TURKMEN CARPETS</tspan>
                </text>
            </g>
        </g>
    </g>
</svg>